<mxfile host="app.diagrams.net" modified="2023-11-08T02:49:58.358Z" agent="Mozilla/5.0 (Windows NT 10.0; Win64; x64) AppleWebKit/537.36 (KHTML, like Gecko) Chrome/118.0.0.0 Safari/537.36" version="22.0.8" etag="0C9zErJ8rhp_-yRCaM0X" type="github">
  <diagram name="PÃ¡gina-1" id="I_a00WnEpKCFHQCz558G">
    <mxGraphModel>
      <root>
        <mxCell id="0" />
        <mxCell id="1" parent="0" />
      </root>
    </mxGraphModel>
  </diagram>
</mxfile>
